<svg width="10" height="7" viewBox="0 0 10 7" fill="none" xmlns="http://www.w3.org/2000/svg">
<path d="M8.91403 0.705828C8.85981 0.651154 8.79529 0.607757 8.72421 0.578142C8.65312 0.548527 8.57688 0.533279 8.49987 0.533279C8.42286 0.533279 8.34662 0.548527 8.27553 0.578142C8.20445 0.607757 8.13993 0.651154 8.0857 0.705828L3.73987 5.0575L1.91404 3.22583C1.85773 3.17144 1.79127 3.12867 1.71843 3.09997C1.6456 3.07127 1.56783 3.05719 1.48956 3.05855C1.41128 3.0599 1.33405 3.07666 1.26225 3.10786C1.19045 3.13907 1.12551 3.18411 1.07112 3.24041C1.01673 3.29672 0.973963 3.36318 0.945261 3.43601C0.916559 3.50885 0.902483 3.58662 0.903837 3.66489C0.905191 3.74316 0.921949 3.8204 0.953153 3.8922C0.984358 3.96399 1.0294 4.02894 1.0857 4.08333L3.3257 6.32333C3.37993 6.378 3.44445 6.4214 3.51553 6.45102C3.58662 6.48063 3.66286 6.49588 3.73987 6.49588C3.81688 6.49588 3.89312 6.48063 3.96421 6.45102C4.03529 6.4214 4.09981 6.378 4.15404 6.32333L8.91403 1.56333C8.97325 1.5087 9.0205 1.44241 9.05282 1.36862C9.08514 1.29482 9.10183 1.21514 9.10183 1.13458C9.10183 1.05402 9.08514 0.974333 9.05282 0.900541C9.0205 0.82675 8.97325 0.760453 8.91403 0.705828Z" fill="#E26559"/>
</svg>
